<svg xmlns="http://www.w3.org/2000/svg" xmlns:xlink="http://www.w3.org/1999/xlink" width="80" height="50"><defs><path id="a" d="M0 0h80v50H0z"/><linearGradient id="c" x1="50%" x2="50%" y1="48.131%" y2="100%"><stop offset="0%" stop-color="#00384E" stop-opacity="0"/><stop offset="100%" stop-color="#00384E"/></linearGradient><path id="d" d="M0 0h80v50H0z"/></defs><g fill="none" fill-rule="evenodd"><mask id="b" fill="#fff"><use xlink:href="#a"/></mask><use fill="#3B4E78" xlink:href="#a"/><path fill="#202225" fill-rule="nonzero" d="M52.72 2.9c.634-.492 1.159-.9 1.165-.9.026-.014.468.647.468.696 0 .028-.41.26-.916.52l-.915.47-.314.633-.32.64-.314-.042c-.173-.021-.34-.063-.371-.099-.026-.028.045-.274.16-.534.205-.478.211-.485 1.357-1.384zM17.6 2.155c.115-.042.211-.084.218-.084.006-.008.217.077.467.175.384.162.506.253.832.647l.378.457.557-.085c.307-.049.576-.063.602-.028.064.077.21.865.172.914-.025.028-2.291-.12-2.33-.155-.006 0-.058-.246-.115-.534-.051-.288-.109-.59-.128-.675-.026-.12-.135-.19-.48-.309-.244-.091-.43-.176-.41-.197.02-.02.128-.077.237-.126zm43.929.26c.403-.155.755-.176.909-.056.09.077.096.133.038.358-.038.155-.05.288-.032.31.02.02.25 0 .519-.043.666-.105.781-.098.928.063.16.176.167.464.02.956-.103.359-.116.373-.43.485-.71.246-.665.183-.627.794.013.295.039.548.045.562.006.008.531-.217 1.165-.506l1.152-.527.954.24c1.383.337 1.249.344 1.357-.106.045-.21.096-.394.11-.408.012-.014.243.092.511.225.468.24.493.26.455.436-.134.57-.14.534.34 1.012l.46.443.43-.05c.921-.105.876-.077 1.26-.674l.346-.548.435.12c.365.098.442.147.455.28.025.155.038.162.525.113l.505-.05.039.24c.032.203.102.274.512.527l.467.295.583-.078c.531-.07.595-.07.71.05.071.07.129.175.129.246 0 .063.115.231.25.38l.255.273.679-.084c.672-.085.685-.085 1.037.091.192.106.39.183.435.183.039 0 .11-.12.148-.267.14-.5.076-.506 1.523.253 1.21.64 1.351.73 1.479.977.083.147.154.295.166.337.02.035.103-.007.199-.105l.173-.176.237.148c.21.119.236.161.217.379-.025.344-.128.717-.237.879-.096.126-.115.119-.499-.289-.218-.225-.486-.506-.595-.611l-.199-.197-.237.345c-.179.274-.288.365-.518.435-.16.05-.288.099-.288.113 0 .014.057.182.128.38.07.196.128.365.128.379 0 .014-.115.042-.256.063-.186.028-.346.126-.59.365a11.34 11.34 0 0 1-.729.64c-.333.26-.442.31-.704.31-.173 0-.506.02-.736.041-.41.043-.423.057-.583.338-.122.225-.147.323-.096.442.077.19-.23 1.11-.442 1.322-.077.077-.262.372-.41.646-.147.281-.288.513-.313.513-.026 0-.109-.091-.186-.21-.198-.289-.256-.95-.115-1.244.058-.127.083-.268.064-.324-.02-.07.186-.337.583-.759.601-.632.685-.766.774-1.166l.045-.176-.3.19c-.283.182-.308.182-.455.077a.587.587 0 0 0-.218-.112c-.051 0-.211.133-.839.681-.019.021.039.085.116.155.128.098.134.133.057.204-.064.063-.429.049-1.556-.057a69.808 69.808 0 0 0-1.574-.14c-.058 0-.48.344-.941.773l-.839.773.243.134c.128.07.43.175.653.217.23.05.436.106.461.134.026.021.083.281.135.576l.09.534-.404.59c-.224.324-.41.654-.41.732-.006.084-.205.316-.512.597-.41.372-.583.478-.903.562-.307.085-.435.162-.595.366-.109.14-.294.302-.403.365-.116.063-.212.148-.212.19 0 .042.116.204.257.351.14.155.256.324.256.387 0 .105-.365.52-.461.52-.077 0-.18-.253-.205-.5-.013-.182-.058-.245-.218-.301-.154-.064-.186-.099-.14-.183.089-.162-.058-.281-.36-.281-.204 0-.28-.028-.28-.106 0-.14-.033-.133-.507.134l-.41.232.455.126c.256.064.461.14.461.169 0 .021-.115.127-.25.232l-.243.19.147.9c.09.576.122.941.084 1.011-.032.07-.308.373-.615.689l-.557.562-.98.26c-.819.211-.998.281-1.107.429-.186.26-.16.38.167.857.339.492.422.844.243 1.02-.205.196-.82.674-.87.674-.033 0-.052-.042-.052-.098 0-.281-.531-.682-1.037-.773l-.243-.05v.359c0 .288.038.422.192.668.102.168.262.358.352.435.115.085.192.26.262.541.051.225.09.422.077.436-.013.007-.154-.091-.307-.225a1.157 1.157 0 0 1-.39-.576c-.052-.176-.142-.337-.193-.351-.25-.085-.294-.218-.262-.71.025-.415.006-.534-.147-.907-.167-.407-.18-.422-.327-.351-.18.091-.154.12-.384-.338-.103-.196-.371-.534-.595-.752-.359-.344-.43-.38-.545-.316a18.78 18.78 0 0 0-.646.408 6.835 6.835 0 0 1-.717.414c-.122.057-.327.267-.519.556-.173.26-.377.534-.454.604a.523.523 0 0 0-.135.365c0 .12-.064.352-.14.506-.129.232-.167.268-.282.211-.07-.035-.224-.274-.34-.527a4.98 4.98 0 0 0-.454-.787c-.134-.176-.275-.45-.307-.604-.224-.942-.192-.879-.372-.809-.147.064-.204.029-.576-.365-.448-.47-.608-.534-1.466-.541-.5-.007-1.235-.239-1.357-.429-.096-.147-.397-.19-.506-.07-.038.042-.25-.084-.602-.38-.422-.351-.601-.456-.8-.477l-.256-.022.02.246c.019.197.108.345.441.717.23.253.487.478.57.5.083.013.3-.029.486-.106.551-.218.564-.218.564-.12 0 .05.121.225.269.394.25.281.262.302.16.429-.058.07-.11.161-.11.196 0 .036-.07.176-.153.317-.211.344-1.536 1.11-2.298 1.328-.359.105-.583.14-.608.091-.026-.035-.487-.738-1.03-1.56-.539-.822-.987-1.532-.993-1.581-.02-.155-.115-.26-.211-.225-.052.021-.18-.007-.288-.07-.186-.106-.193-.106-.148.056.026.091.352.752.724 1.476.64 1.244.71 1.356 1.235 1.883l.557.562h.743c.41 0 .742.014.742.036 0 .02-.128.288-.288.583-.243.457-.448.703-1.344 1.595-.717.71-1.056 1.097-1.056 1.195 0 .077.057.485.128.914l.121.766-.595.674-.595.668-.602 1.982-.621.66c-.57.612-.672.69-1.274.97-.634.295-.66.302-1.127.253l-.486-.049-.039-.45c-.038-.372-.09-.52-.3-.836-.18-.281-.346-.696-.57-1.427l-.314-1.026v-2.86l-.352-.366-.359-.365-.038-.597c-.02-.33-.058-.647-.09-.71-.025-.056-.32-.225-.653-.373l-.608-.26-.403.225c-.378.211-.448.218-1.3.253l-.902.035-.48-.295c-.301-.19-.705-.541-1.076-.942l-.595-.64.038-1.053c.064-1.771 0-1.596.807-2.284l.697-.598.135-.499c.128-.485.153-.52.544-.829.403-.316.416-.323.915-.323.32 0 .762-.064 1.198-.183a8.488 8.488 0 0 1 1.306-.218l.608-.042.3.492.295.492.845.393c.884.422.935.43 1.178.127.18-.218.922-.204 1.735.035l.615.176.556-.443c.513-.415.557-.47.557-.689v-.246l-.473-.098c-.397-.084-.544-.084-.865-.014l-.39.091-.173-.218a.695.695 0 0 1-.18-.45v-.231l1.934-.802.205.134c.173.12.25.126.615.07.806-.126.78-.084.326-.583-.326-.358-.397-.478-.358-.597.038-.141.019-.148-.288-.148-.289 0-.327.014-.295.127.026.084-.006.182-.09.26-.128.126-.147.126-.307.02a.473.473 0 0 1-.192-.26c-.02-.14-.07-.168-.435-.252-.186-.043-.224-.014-.538.428-.32.443-.333.485-.269.689.045.112.07.21.058.218-.301.26-.596.386-.91.386-.32 0-.351.014-.351.155 0 .239-.077.33-.301.38-.192.042-.218.02-.436-.352-.128-.225-.224-.457-.21-.52.018-.084-.174-.267-.673-.632-.647-.478-.877-.57-.877-.352 0 .183.25.534.442.626.108.056.217.147.23.21.02.064.147.211.288.338.263.232.275.33.077.583-.134.176-.205.155-.205-.05 0-.097-.032-.175-.07-.175-.045 0-.327-.28-.634-.625-.314-.359-.634-.654-.73-.682-.128-.035-.34.035-.858.295-.634.31-.73.387-1.26.984l-.577.647-.87.049-.871.042-.039-.267a54.219 54.219 0 0 1-.083-.696l-.038-.435.339-.253c.333-.246.365-.253.935-.253.672 0 .64.035.499-.598-.122-.57-.122-.632.058-.724a.418.418 0 0 0 .198-.302c.045-.218.045-.218.39-.19l.346.035.512-.716c.5-.696.737-.914.916-.844.045.021.134-.007.205-.063.108-.084.115-.12.038-.372-.102-.33-.051-.556.135-.626.147-.05.275.105.179.21-.218.24.153.725.5.647.114-.028.249.015.422.127l.243.169.467-.176c.455-.162.48-.19.743-.626.147-.253.32-.484.378-.52.064-.035.16-.175.217-.309.16-.38.43-.555.756-.499.21.028.32.007.486-.098.416-.288.205-.415-.429-.26-.634.161-.787.147-.986-.085-.128-.147-.185-.309-.237-.681l-.064-.492.551-.584c.3-.323.538-.597.525-.618a3.188 3.188 0 0 0-.327-.127l-.3-.098-.154.218-.576.878-.423.647.122.52.115.52-.333.464c-.192.26-.358.57-.377.703-.045.246-.135.323-.397.323-.135 0-.167-.063-.301-.548-.135-.478-.167-.541-.314-.562-.096-.014-.326.07-.538.19-.39.231-.608.273-.717.126-.038-.05-.09-.323-.115-.612l-.038-.527.307-.54c.23-.394.358-.556.48-.584.128-.035.384-.373 1.088-1.469l.922-1.427 1.191-.611c.653-.33 1.223-.604 1.261-.604.039 0 .173.063.295.147.192.12.23.19.23.38 0 .267-.032.253.858.386.48.078.531.106 1.101.57.82.66.807.87-.07 1.082l-.48.12-.193-.176c-.185-.176-.55-.31-.62-.24-.02.022.204.345.486.717l.519.682.102-.26c.096-.26.102-.26.365-.21l.269.041.614-.716.615-.724.307.197.307.203.212-.274c.115-.154.211-.295.217-.33 0-.028.538-.05 1.204-.05h1.197l.256-.42c.14-.233.288-.423.327-.423.038 0 .377.127.755.282.371.154.691.28.704.28.02 0-.083-.372-.224-.822l-.25-.822.359-.513c.198-.281.378-.513.41-.513.025 0 .153.562.281 1.244.128.689.25 1.321.276 1.406.057.253-.032.491-.276.759-.217.246-.224.26-.128.421.058.099.141.176.186.176.045 0 .262-.204.487-.45.358-.4.396-.464.332-.597-.07-.134-.057-.162.135-.253.185-.085.218-.085.288.014.134.19.166.576.102 1.068a3.51 3.51 0 0 0-.05.485c.012.014.16-.021.332-.07l.32-.092-.243-.878a78.564 78.564 0 0 0-.275-.956c-.02-.063-.128-.063-.436.007-.217.056-.41.091-.416.084a14.89 14.89 0 0 1-.032-.745l-.02-.737.385-.085c.211-.049.403-.091.423-.098.019 0 .403.344.851.773.448.422.826.773.839.773.019 0-.135-.499-.327-1.11a43.339 43.339 0 0 1-.384-1.21c-.032-.112-.096-.07 2.221-1.602.826-.548 1.665-1.06 1.857-1.138zm-14.782 9.164c-.045-.077-.333-.204-.333-.147 0 .014.032.126.07.253.052.154.103.21.167.19a.707.707 0 0 1 .122-.043c.045 0 .025-.168-.026-.253zm-.685.183c-.128-.155-.121-.155-.371-.056-.14.056-.167.098-.135.218.052.19.09.232.263.288.109.035.166.007.25-.134.102-.168.102-.19-.007-.316zm17.957 2.776c0-.134-.006-.246-.019-.246-.077 0-.32.26-.371.4-.032.092-.083.148-.122.127-.032-.021-.192.07-.352.204-.16.133-.269.26-.23.281.09.063.595-.155.685-.302a.51.51 0 0 1 .25-.176c.134-.035.16-.084.16-.288zm-13.456 2.614c-.186-.168-.276-.147-.839.211l-.506.316.167.19c.09.106.198.295.237.429.038.133.147.33.236.436.141.168.154.217.09.372-.096.232-.096.548 0 .654.096.105.653.112.826.014.154-.092.16-.415.02-.71-.052-.113-.078-.267-.058-.337.025-.085-.052-.253-.218-.485-.141-.19-.237-.373-.211-.4.025-.029.14-.092.256-.148.179-.078.205-.12.173-.253a.773.773 0 0 0-.173-.289zm2.061.324c0-.267-.102-.296-.397-.12-.23.134-.243.429-.032.647.083.084.167.154.186.154.083 0 .243-.45.243-.681zM14.06 2.38c.121-.162.16-.134.32.246.147.351.179.372.563.457.109.028.205.063.205.077 0 .014-.07.147-.154.295-.121.218-.217.288-.582.415l-.436.154-.121-.168c-.103-.148-.18-.176-.468-.176-.262 0-.358.028-.41.12-.057.119-.076.112-.243-.064l-.172-.197.3-.337.308-.344.365.091c.198.056.429.098.505.098.135 0 .135-.007.039-.28-.083-.226-.083-.296-.02-.387zm2.131.197c.289-.078.557-.155.602-.155.07-.007.16.344.243.984.045.309.039.33-.14.4a5.586 5.586 0 0 0-.288.12c-.077.035-.148-.035-.276-.274-.121-.225-.224-.324-.358-.359-.186-.049-.436-.414-.346-.513.026-.028.275-.12.563-.203zm54.755.442c.192-.154.384-.14.653.035.352.225.288.464-.198.766l-.333.211-.128-.204c-.186-.28-.18-.667.006-.808zm-53.513.359c.02-.14.052-.26.064-.26.013 0 .16.084.327.19.166.105.307.19.314.196.006 0-.02.12-.058.26l-.07.253-.25-.126c-.346-.169-.371-.211-.327-.513zm54.633.049c.045-.134.404-.134.404.007 0 .155-.244.274-.352.176a.183.183 0 0 1-.052-.183zm.973.267c.052-.113.385-.169.455-.084.02.02.083.07.154.105.166.105.14.183-.077.288-.16.07-.212.063-.384-.056-.16-.105-.192-.169-.148-.253zm-61.93.892l.185-.323.595.106c.333.056.609.105.615.112a5.13 5.13 0 0 1-.083.499c-.122.647-.461 1.202-.845 1.385l-.276.133-.288-.232c-.281-.225-.288-.239-.256-.548.052-.47.148-.78.352-1.132zm6.843.127c.211-.098.647-.105.787-.014.026.021.013.148-.025.288-.051.197-.135.288-.365.415l-.288.161-.243-.133c-.129-.077-.237-.148-.237-.162 0-.014.032-.12.07-.232a.5.5 0 0 1 .301-.323zm-1.556.281l-.038-.33.326.14c.18.078.333.14.352.14.013 0 .084.106.16.24l.135.246-.173.372c-.09.204-.18.387-.192.4a2.696 2.696 0 0 1-.435-.133c-.372-.133-.423-.175-.423-.33 0-.162.02-.176.192-.133.173.035.192.02.167-.12a5.378 5.378 0 0 1-.07-.492zm55.305-.19c0-.042.058-.07.128-.07s.128.028.128.07c0 .035-.057.07-.128.07-.07 0-.128-.035-.128-.07zm-50.446.085c.039-.12.084-.14.282-.106.371.064.525.197.525.478v.24l-.365-.184c-.46-.225-.493-.253-.442-.428zm-1.811.168c.39-.288.396-.288.505-.147.058.077.212.105.538.105h.461l-.026.443c-.038.682-.006.766.167.45.18-.31.307-.33.365-.056l.038.196.461-.091c.647-.14.685-.134.691.091 0 .155.11.295.525.675.519.47.532.478.865.457l.339-.021.173.618.166.619.506.393c.275.211.48.415.448.443-.102.098-2.119 1.406-2.17 1.406-.032 0-.173-.127-.32-.289l-.263-.28-.435.112a4.056 4.056 0 0 1-.442.091 6.569 6.569 0 0 0-.185-.281l-.18-.267.436-.352c.237-.19.467-.35.5-.35.037 0 .191.097.351.21.16.112.314.21.34.21.07 0 .556-.372.556-.428 0-.021-.275-.183-.608-.351-.576-.296-.608-.317-.608-.534 0-.387-.051-.436-.704-.654-.531-.183-.724-.21-1.325-.21h-.71l-.36-.486c-.339-.464-.358-.52-.396-.977l-.045-.492.346-.253zm31.516.436c.134-.393.134-.393.333-.33.108.028.204.07.224.084.012.014.038.295.057.619.026.33.083.667.135.759.083.147.083.175 0 .274-.09.098-.141.091-.468-.007-.205-.064-.429-.176-.5-.253-.114-.134-.114-.155-.018-.443.057-.169.16-.485.237-.703zm-36.644.091c.403-.112.755-.203.774-.21.026-.007.064.323.09.723l.045.731.416.134c.23.07.429.162.448.204.013.035-.051.218-.14.393l-.16.317-.532.049c-.288.028-.66.063-.82.091l-.3.035-.141-.464c-.135-.45-.16-.485-.602-.808-.314-.232-.563-.365-.762-.393-.166-.028-.3-.064-.3-.078 0-.02.089-.218.191-.45l.192-.421.34.147c.493.225.467.225 1.26 0zm3.425.71c.038-.168.173-.204.269-.07.038.05.128.316.204.59l.135.5.736.61c.41.338.762.598.794.577.026-.021.09-.21.134-.429.045-.21.103-.386.122-.386.02 0 .205.105.403.232.34.218.359.246.263.344-.09.105-.09.134.038.33l.141.218-.487.24c-.48.245-.486.245-1.011.182-.89-.113-.87-.12-.563.246.14.169.262.337.262.365 0 .021-.224.303-.5.612l-.499.569-.185.822c-.122.534-.167.85-.128.893.038.035.64.429 1.344.871l1.28.801.263.556c.205.421.326.59.512.71.14.09.275.161.307.161.052 0 .007-.815-.064-1.307-.032-.197-.012-.232.256-.408.16-.105.295-.21.295-.239a1.73 1.73 0 0 0-.128-.316c-.115-.232-.128-.372-.115-1.152l.019-.879.403-.176.41-.182 1.517 1.665.34-.12c.179-.062.339-.105.345-.098.013.007.224.52.474 1.139.256.618.467 1.131.48 1.145.013.015.18-.028.378-.098s.365-.112.377-.091c.122.161.436.71.416.73-.012.015-.627.24-1.363.5-.743.26-1.37.499-1.402.534-.039.028.02.056.128.056.102 0 .294.021.429.042l.237.05v.808l.326.084c.448.12.404.274-.128.436l-.41.119-.268-.204-.276-.21-.326.302c-.199.182-.327.351-.327.442 0 .099-.185.338-.525.675-.646.633-.672.654-.793.541-.154-.14-.224.05-.18.534l.032.422-.646.66-.647.654.122.155c.07.077.173.253.237.386.09.197.096.267.025.443l-.077.21-.21-.266c-.116-.155-.212-.345-.218-.429 0-.091-.084-.26-.186-.386-.154-.19-.23-.225-.435-.218-.225.007-2.696.611-2.728.66-.012.014 0 .422.02.907l.032.878.32.078c.179.042.467.098.646.12.32.048.32.048.43-.198.108-.26.166-.274.569-.203l.23.042-.121.323c-.122.302-.122.33-.02.626l.11.309.326-.014.326-.021.084.38c.102.456.108.463.563.85.294.253.378.288.474.217.083-.056.179-.056.326-.007.186.064.397.029 1.338-.232l1.12-.309.788.169c.743.162.839.197 1.888.815 1.102.654 1.102.654 1.274 1.033l.173.387 1.351.309 1.357.316.41.647.41.64-.532 1.222-.537 1.216-1.32 1.363c-1.081 1.11-1.337 1.406-1.388 1.624-.052.197-.212.408-.692.892-.506.513-.768.717-1.408 1.083l-.794.45-.34.744a27.498 27.498 0 0 0-.736 1.849c-.217.611-.435 1.124-.486 1.145-.128.057-.352-.126-.563-.463l-.18-.282.116-1.37c.102-1.28.102-1.399.006-1.89l-.102-.528.25-.822c.249-.808.249-.836.32-2.403.038-.872.063-1.589.05-1.603a50.02 50.02 0 0 1-.768-.625l-.742-.612-.23-.646c-.122-.359-.327-.935-.443-1.28l-.217-.632.39-.843.41-.893c.013-.028-.07-.112-.186-.19-.147-.098-.243-.119-.352-.077-.115.05-.422-.098-1.703-.822-1.081-.611-1.702-.928-2.035-1.02-.263-.07-.89-.273-1.39-.449-.966-.33-1.024-.38-.851-.73.09-.184-.243-.626-1.107-1.484-.865-.85-1.07-1.026-1.07-.892 0 .175.865 1.567 1.057 1.7.102.078.153.148.115.162-.192.07-.531-.28-1.35-1.405-.487-.668-1.083-1.413-1.32-1.666-.512-.541-.525-.555-.71-1.293-.135-.562-.141-.598-.045-1.364.083-.681.109-.787.211-.787.167 0 .154-.07-.083-.464-.186-.295-.256-.35-.563-.45l-.352-.105-.359-.787c-.269-.597-.48-.949-.858-1.42-.48-.597-.518-.625-.826-.667a40.94 40.94 0 0 1-1.626-.337c-1.242-.275-1.306-.282-1.51-.17a1.224 1.224 0 0 1-.263.113c-.02 0-.02-.147.006-.337.026-.21.02-.302-.019-.26a22.93 22.93 0 0 0-.525.689c-.256.337-.608.73-.794.885l-.332.267-.052-.323c-.044-.267-.102-.365-.32-.548l-.269-.232-.128.176c-.076.098-.153.175-.172.175-.02 0-.276-.337-.557-.745L1 11.607l.512-.64c.282-.35.512-.667.512-.695 0-.035-.211-.176-.473-.316l-.48-.26.095-.19a.98.98 0 0 0 .09-.302c0-.19.295-.345.55-.288.302.056.257-.014-.262-.429-.23-.183-.416-.351-.416-.373 0-.02.474-.358 1.044-.737l1.037-.696.928.218c.512.126 1.69.442 2.618.717.928.267 1.71.477 1.735.456a.575.575 0 0 0 .096-.225.792.792 0 0 1 .096-.267c.032-.042.532-.056 1.421-.028l1.364.042.704.422c.8.485.916.527 1.78.71.448.098.64.112.653.056a3.27 3.27 0 0 0 .057-.253l.032-.176.788.022c.602.02.87 0 1.146-.092.326-.112.371-.112.557-.007a.818.818 0 0 0 .288.113c.09 0 .442-.879.378-.942-.02-.028-.09-.042-.154-.042-.16 0-.154-.134.045-1.11zm-5.832 2.488c-.058-.02-.11-.042-.116-.042a7.38 7.38 0 0 0-.326.246c-.237.183-.288.253-.211.281.083.035.096.105.07.288-.038.267-.026.274.397.162a1.11 1.11 0 0 0 .448-.274l.18-.204-.173-.05c-.116-.027-.167-.09-.167-.203 0-.091-.045-.183-.102-.204zm1.44 2.312c-.531-.133-.525-.133-.403.078.109.175.102.182-.128.442l-.244.274.282.029c.211.028.423-.029.903-.211.55-.225.62-.274.62-.422 0-.169-.012-.169-.313-.126-.192.028-.46.007-.717-.064zm3.77 3.732c-.204-.056-.217-.056-.3.05-.051.077-.039.126.057.224.07.07.16.26.199.415.064.246.083.267.128.147.026-.077.051-.288.051-.463.007-.282-.013-.338-.134-.373zm2.888 2.13c-.186-.148-.365-.275-.403-.275-.096 0-.55.253-.73.408l-.154.127.346.084c.224.056.41.063.544.021.134-.042.224-.042.25 0 .019.042.025.077.019.084-.25.148-.282.19-.301.45-.013.225.013.33.147.485l.167.204-.02-.31c-.019-.287 0-.323.186-.45.23-.14.34-.112.34.092 0 .078.057.169.134.218.109.063.16.05.282-.077.134-.134.179-.148.352-.085l.198.078-.109-.197c-.064-.127-.25-.26-.505-.387a4.16 4.16 0 0 1-.743-.47zM34.04 9.19c.205-.05.41-.085.46-.092.097-.007.711.359.711.422 0 .028-.185.267-.416.541l-.416.492-.403-.035c-.378-.035-.416-.056-.781-.443-.212-.225-.455-.442-.538-.492l-.16-.091.185-.162.193-.161.166.175c.134.14.205.169.352.127.103-.028.205-.084.23-.127.026-.042.212-.112.417-.154zm-14.027.688c0-.19.09-.196.205-.02.051.077.23.196.404.266.307.127.486.317.39.422-.026.028-.18.056-.333.05-.186-.008-.282.02-.282.077 0 .21-.313.161-.32-.043 0-.028-.07-.07-.16-.09l-.16-.043.128-.232a.956.956 0 0 0 .128-.387zm62.7.675c0-.028.038-.056.083-.056.09 0 .25.246.192.31-.045.048-.275-.162-.275-.254zM37.26 12.985c.077-.218.416-.253.352-.035a.23.23 0 0 0 .064.218c.051.049.096.19.096.309 0 .175.102.344.512.85.34.422.493.668.467.738a1.047 1.047 0 0 0-.044.33c-.007.127-.045.267-.084.31-.07.077-1.011.337-1.216.344-.16 0-.09-.351.077-.436.198-.098.224-.4.032-.457-.16-.049-.16-.056 0-.302.14-.21.115-.28-.109-.28-.134 0-.147-.036-.147-.317 0-.218-.032-.33-.11-.373a.15.15 0 0 1-.063-.182c.026-.07.006-.134-.051-.155-.141-.063-.116-.295.038-.344a.4.4 0 0 0 .186-.218zm-33.334.443c.064-.078.179-.057.262.035.115.126.096.168-.115.182-.18.014-.263-.098-.147-.217zm32.694.843c.192-.148.217-.148.326-.007.07.098.064.155-.058.386-.083.148-.115.275-.076.275.032 0 .064.063.064.14 0 .21-.525.457-.71.33-.11-.07-.123-.147-.11-.54.02-.458.02-.458.211-.458a.656.656 0 0 0 .353-.126zm35.254.492c.128-.148.205.077.212.618.006.19.032.478.057.633.039.225.02.344-.109.625-.083.19-.14.415-.121.513.025.14.006.162-.11.12-.07-.028-.146-.056-.16-.07-.018-.015.02-.275.078-.577.057-.295.108-.829.108-1.18 0-.352.02-.661.045-.682zm-45.12 1.37l.205-.154.02.161c.012.113.147.274.403.471.205.169.378.323.378.345-.007.182-.129.19-.692.042-.326-.085-.608-.169-.62-.19-.084-.084.12-.527.306-.675zm-16.471.042c0-.084.21.022.37.176.193.197.18.274-.031.169-.173-.084-.333-.246-.34-.345zm15.146.148c.051-.098.154-.07.154.042 0 .063-.039.085-.096.063-.051-.028-.077-.07-.058-.105zm48.385.78c0-.042.013-.07.026-.07.019 0 .05.028.07.07.02.035.006.07-.026.07a.073.073 0 0 1-.07-.07zm-48.52.14c-.018-.041.007-.07.058-.07.058 0 .103.029.103.07 0 .036-.026.071-.058.071-.038 0-.083-.035-.102-.07zm.494.148c-.013-.042.025-.077.083-.077s.096.035.083.077c-.013.042-.051.07-.083.07-.032 0-.07-.028-.083-.07zm45.888.324c.019-.021.166.02.326.098.154.07.352.134.442.134.192 0 .14.196-.07.253a.59.59 0 0 0-.263.175c-.121.148-.282.176-.39.056-.052-.056-.11-.056-.199 0-.314.183-.378-.042-.077-.274.11-.084.192-.203.192-.274 0-.07.02-.14.039-.168zm-.576 1.553c.205-.26.384-.478.397-.478.006 0 .07.063.134.133.128.14.122.14-.051.38-.096.133-.23.422-.295.64-.102.323-.147.393-.269.393-.076 0-.358.126-.62.274-.474.281-.577.295-.506.098.032-.09.019-.09-.103-.028-.109.07-.153.064-.237-.02-.083-.1-.076-.12.052-.212.083-.049.217-.119.307-.147.275-.092.8-.541 1.19-1.033zm-29.404.344c.186-.035.256-.021.282.07.032.099-.16.176-.307.127-.167-.063-.154-.162.025-.197zM69.07 20.94c.084-.105.103-.112.192-.007.09.099.084.12-.05.267-.116.113-.142.127-.116.036.02-.064.006-.134-.039-.148-.057-.021-.05-.056.013-.148zm.615.029a.13.13 0 0 1 .102-.07c.039 0 .045.027.026.07-.02.035-.07.07-.103.07-.038 0-.044-.035-.025-.07zM66.72 23.09c.077-.084.243-.12.243-.042 0 .112-.147.309-.224.309-.115 0-.128-.148-.02-.267zm-46.061.576c.045-.056.122-.084.173-.063.057.021.358.126.678.225.628.204.743.267.743.415 0 .147-.314.119-.672-.064a5.594 5.594 0 0 0-.66-.288c-.281-.105-.326-.14-.262-.225zm43.302.612c.179-.162.441-.197.441-.05 0 .141-.441.359-.531.26-.045-.049-.02-.112.09-.21zm-40.748.182c.237-.042.288-.02.308.148.019.14-.007.155-.301.155-.18 0-.327-.029-.327-.064 0-.091.141-.203.32-.239zm43.577.078c.244-.028.27.02.18.309-.103.33-.09.38.153.548.128.091.224.21.224.288 0 .07-.013.134-.025.134-.026 0-.788-.471-.858-.527a2.164 2.164 0 0 1 .051-.373c.07-.33.09-.358.275-.38zm-44.793.154c0-.042.013-.07.025-.07.02 0 .052.028.07.07.02.035.007.07-.025.07a.073.073 0 0 1-.07-.07zm45.094 1.399c0-.035.032-.063.064-.063.039 0 .064.049.064.112 0 .056-.025.084-.064.063a.153.153 0 0 1-.064-.112zm-.922.351c.077-.091.128-.112.141-.063.032.105-.16.323-.218.26-.025-.028.007-.112.077-.197zm-9.11.162c.065-.106.129-.106.225 0 .121.133.096.464-.045.541-.167.098-.365-.063-.295-.246a.697.697 0 0 0 .058-.169 1.07 1.07 0 0 1 .058-.126zm10.403.084c.128-.084.27-.161.308-.161.115-.007.288.506.192.569-.122.091-.576.056-.704-.05-.141-.119-.128-.14.204-.358zm-2.227.717c.3-.21.589-.386.646-.386.103-.008.314.47.314.71 0 .302-.224.751-.563 1.124l-.359.407h-.455c-.345 0-.505-.035-.697-.161-.135-.085-.244-.19-.244-.225.007-.042.045-.225.09-.415.077-.316.109-.358.403-.506.173-.091.564-.337.865-.548zm-4.546.176l-.153-.24.211.043c.122.028.262.05.326.05s.257.14.436.315c.173.176.365.317.422.317.058 0 .372.274.692.604.71.717.768.893.294.928-.23.014-.307 0-.307-.078 0-.049-.211-.239-.467-.421-.455-.316-1.146-1.04-1.454-1.518zm5.724 1.033l.198-.337h.397c.218 0 .41.028.429.063.045.077-.109.147-.314.147-.358 0-.467.169-.16.232.218.05.263.19.058.19-.11 0-.122.028-.084.155.122.435-.012.527-.217.147l-.141-.267v.288c0 .204-.032.31-.102.338-.141.056-.148.049-.205-.317-.045-.274-.032-.344.14-.64zm1.728-.232c.038-.127.173-.113.211.014.026.077-.166.19-.224.134-.013-.022-.013-.085.013-.148zm1.14.57c-.02-.162 0-.184.192-.184a.92.92 0 0 1 .37.106c.097.063.347.098.635.105.352 0 .672.064 1.248.253l.775.253.525.57c.294.316.505.597.48.625-.032.035-.23-.021-.448-.12a1.929 1.929 0 0 0-.698-.175c-.243 0-.608-.134-1.684-.626-1.248-.576-1.376-.646-1.395-.808zm-.461.168c0-.042.032-.07.064-.07.038 0 .064.028.064.07 0 .035-.026.07-.064.07-.032 0-.064-.035-.064-.07zm-5.378.66c0-.119.007-.119 1.14.022.365.042.41.126.192.358-.141.14-.16.14-.596.042-.493-.112-.736-.253-.736-.422zm9.827-.028c-.02-.042.02-.07.09-.07.07 0 .147.028.166.07.02.036-.02.07-.09.07-.07 0-.147-.034-.166-.07zm-6.53.478c.218-.14.288-.154.288-.063 0 .112-.186.232-.333.204-.14-.021-.14-.028.045-.14zm.736.295c0-.042.09-.07.199-.07.109 0 .179.028.153.07-.019.036-.108.07-.198.07-.083 0-.154-.034-.154-.07zm-.992.134c.026-.035.064-.063.102-.063.064 0 .077.098.02.161-.064.064-.16-.02-.122-.098zm2.689.64c.211-.197.403-.352.435-.352.026 0 .25.113.5.253.41.225.448.26.415.422-.038.147 0 .19.301.351.333.183.352.183.513.07.134-.098.179-.21.236-.611.045-.267.09-.485.11-.485.012 0 .127.084.249.19.14.112.211.225.186.288-.02.063.275.464.845 1.131.486.563.934 1.097.998 1.174.083.113.141.394.199 1.02l.09.87-.455.802c-.404.703-.506.83-.8 1.012-.256.154-.359.19-.423.126-.058-.049-.186-.063-.358-.035-.263.05-.27.042-.724-.45-.397-.428-.57-.555-1.216-.892-.416-.21-.813-.387-.87-.387-.065 0-.756.155-1.537.352-1.268.309-1.48.344-1.902.302l-.473-.042v-.26c0-.14-.103-.577-.218-.97-.205-.668-.218-.766-.18-1.265l.046-.541.505-.19c.359-.134.769-.38 1.422-.857.915-.675.921-.675 1.318-.675.39 0 .416-.014.788-.351zm-19.743.133c.096-.155.179-.204.339-.204.205 0 .218.014.25.295.032.26-.013.401-.41 1.265-.243.535-.461.97-.48.97a2.17 2.17 0 0 1-.34-.147l-.307-.14.122-.753c.064-.415.115-.773.115-.794 0-.028.128-.098.288-.162.16-.07.346-.218.423-.33zm27.841 1.841c0-.077.032-.07.128.028.07.07.128.155.128.19 0 .028-.058.021-.128-.028-.07-.05-.128-.133-.128-.19zm1.94 3.542c.109-.056.224-.098.243-.105.02 0 .186.183.365.408l.326.414-.37.4-.372.408-.141-.21c-.147-.24-.167-.38-.064-.584.051-.112.038-.196-.064-.386l-.135-.246.212-.099zm-.698 1.596c.25-.204.46-.366.486-.366.084 0 .27.436.205.485a12.18 12.18 0 0 0-.416.323c-.3.232-.365.324-.397.549-.038.225-.083.288-.275.38-.218.098-.23.098-.41-.106l-.192-.204.282-.351a5.42 5.42 0 0 1 .717-.71zm-6.101-.169c.051-.105.109-.126.237-.091.243.063.269.112.224.414-.026.183-.083.281-.173.324-.115.049-.154.014-.243-.225-.09-.211-.096-.31-.045-.422zm-48.673 4.154l.275-.204.02.246c.019.225.044.253.3.323.333.091.327.169-.012.225-.199.035-.295.007-.55-.176l-.308-.218.275-.196zM19-2c2-1.333 3-1.333 3 0 0 2-1 4-1 5s-1-1-2-1c-.667 0-.333-.333 1-1v-3l-1 3-1-1 1-2zm-4 1l1-1c.667 2.667.667 3.667 0 3-.667-.667-1-1.333-1-2zm-3 3s1-1 2-1-2 1-2 1zm12-3l11-1c.333 1.333.167 2.333-.5 3-.16.16-.238.562-.235 1.206.092.596.17 1.027.235 1.294.081.337.108.785.081 1.344-.184.568-.378.953-.581 1.156-.41.41-.59 1.46-1 2-.18.236-.68.403-1.5.5-.12.333-.286.5-.5.5-.478 0-.76.523-1 1-.262.521-.478 1-1 1-.561 0-.715.453-1 0-.223-.354-.561-1.561-1-2-.53-.53-.147-1.207 0-2 .13-.705 0-1.03 0-1.5-.667-.333-1-.833-1-1.5 0-1-1.464-1-2-1-.568-.242-.942-.501-1.123-.779C22.511 1.66 22.426 1 23 1c.667 0 1-.667 1-2zM9 53c0-4 1.667-5 5-3 5 3-1-6 7 0 0-1.333.333-1.667 1-1-.667-1.333-.333-2 1-2 .667-2 1.667-3 3-3-.667.667-1 1.667-1 3 0 2-1 5 0 5s6-2 10-3 2-3 7-2a8.399 8.399 0 0 0 2.149.17c.325-.02.768-.09 1.33-.214l2.188-.917c1.335-.655 2.446-.835 3.333-.539 2 .667 3.333.833 4 .5 1 0 2-.167 3-.5 1.5-.5 2.47-.394 3-.5.353-.07 1.02-.07 2 0h6l3 1 3 1c1.002.337 1.668.837 2 1.5.332.663.332 1.496 0 2.5l-40 3-28-1z" mask="url(#b)"/><use fill="url(#c)" fill-opacity=".4" xlink:href="#d"/></g></svg>